<svg width="226" height="81" viewBox="0 0 226 81" fill="none" xmlns="http://www.w3.org/2000/svg">
<g clip-path="url(#clip0_4_75)">
<path d="M13.9236 63.4998C10.0215 63.4998 7.07166 62.7184 5.06735 61.1556C3.06305 59.5927 1.71464 57.3849 1.02879 54.5319C0.342929 51.679 0 48.3605 0 44.5765V33.6335C0 29.6301 0.356246 26.2152 1.07207 23.3888C1.78456 20.5624 3.14629 18.3978 5.15059 16.8882C7.15489 15.3786 10.0814 14.6238 13.9269 14.6238C17.3862 14.6238 20.0663 15.1857 21.9608 16.3096C23.8552 17.4335 25.1603 19.106 25.8728 21.3306C26.5853 23.5517 26.9449 26.3083 26.9449 29.6001V32.3966H18.9543V29.517C18.9543 27.4322 18.8178 25.7862 18.5415 24.5792C18.2651 23.3722 17.7724 22.4943 17.0599 21.9457C16.344 21.3971 15.3286 21.1211 14.0101 21.1211C12.5818 21.1211 11.4831 21.4503 10.714 22.1086C9.94493 22.767 9.43553 23.8776 9.18916 25.4404C8.94278 27.0032 8.81959 29.1313 8.81959 31.818V46.7943C8.81959 50.8543 9.20248 53.5709 9.97157 54.9409C10.7407 56.3142 12.1124 56.9991 14.09 56.9991C15.5716 56.9991 16.657 56.6567 17.3429 55.9717C18.0287 55.2867 18.4682 54.3125 18.6613 53.0489C18.8544 51.7887 18.951 50.3622 18.951 48.7695V44.9023H26.9415V48.1942C26.9415 51.3764 26.572 54.1196 25.8295 56.4239C25.0871 58.7282 23.7686 60.4839 21.8742 61.6909C19.9798 62.8979 17.3296 63.4998 13.9236 63.4998Z" fill="#F47820"/>
<path d="M43.3389 63.5C41.4711 63.5 39.823 62.9646 38.3947 61.8939C36.9664 60.8232 35.8411 59.4533 35.0154 57.7808C34.193 56.1082 33.7802 54.3393 33.7802 52.4739C33.7802 49.5112 34.2762 47.0173 35.2617 44.9857C36.2506 42.9574 37.609 41.2416 39.3403 39.8417C41.0715 38.4418 43.0758 37.2215 45.3565 36.1808C47.6338 35.14 50.0376 34.1225 52.5647 33.135V29.7599C52.5647 27.8414 52.4548 26.2486 52.235 24.9884C52.0153 23.7282 51.5625 22.7805 50.8766 22.1487C50.1908 21.5203 49.1587 21.2011 47.787 21.2011C46.5784 21.2011 45.6029 21.4771 44.8604 22.0224C44.118 22.571 43.5819 23.3524 43.2523 24.3666C42.9227 25.3808 42.7562 26.5745 42.7562 27.9444V30.3319L34.0232 30.0027C34.1331 24.7357 35.3416 20.8553 37.6489 18.3581C39.9562 15.8609 43.5253 14.614 48.3596 14.614C53.1939 14.614 56.4334 15.9042 58.4111 18.4811C60.3888 21.0614 61.3776 24.7889 61.3776 29.6735V51.3965C61.3776 52.8762 61.4175 54.306 61.5008 55.676C61.584 57.0492 61.6939 58.3228 61.8304 59.5032C61.9669 60.6836 62.0901 61.7942 62.2 62.835H54.1261C53.9597 61.9571 53.7566 60.8465 53.5069 59.5032C53.2605 58.1598 53.0807 56.9395 52.9708 55.8422C52.4215 57.7076 51.3627 59.45 49.7979 61.066C48.2331 62.6853 46.0756 63.4933 43.3289 63.4933L43.3389 63.5ZM46.7981 55.9287C47.6771 55.9287 48.4994 55.6826 49.2685 55.1872C50.0376 54.6917 50.7235 54.1331 51.3294 53.5013C51.9321 52.8729 52.3449 52.3641 52.5647 51.9784V38.4817C51.1896 39.2499 49.9011 40.018 48.6926 40.7861C47.484 41.5542 46.4252 42.3622 45.5196 43.2134C44.614 44.0646 43.8982 45.0223 43.3788 46.093C42.8561 47.1636 42.5964 48.384 42.5964 49.7539C42.5964 51.6758 42.9527 53.1821 43.6685 54.2794C44.381 55.3767 45.4264 55.9253 46.7981 55.9253V55.9287Z" fill="#F47820"/>
<path d="M69.8676 62.8414V15.2788H78.6838V19.9706C80.2753 18.4909 82.0332 17.2274 83.9576 16.1866C85.8787 15.1458 87.9962 14.6238 90.3034 14.6238C92.2245 14.6238 93.6928 15.1159 94.7116 16.1035C95.727 17.091 96.4429 18.3246 96.8524 19.8076C97.2652 21.2873 97.4716 22.7969 97.4716 24.3331V62.8447H88.6554V26.8835C88.6554 25.1844 88.409 23.8676 87.9129 22.9333C87.4202 22.0022 86.4014 21.5334 84.8632 21.5334C83.8744 21.5334 82.8456 21.8227 81.7735 22.3979C80.7014 22.9732 79.6726 23.6748 78.6838 24.4961V62.8414H69.8676Z" fill="#006838"/>
<path d="M114.608 63.5C112.74 63.5 111.092 62.9646 109.664 61.8939C108.236 60.8232 107.11 59.4533 106.285 57.7808C105.462 56.1082 105.049 54.3393 105.049 52.4739C105.049 49.5112 105.545 47.0173 106.531 44.9857C107.52 42.9574 108.878 41.2416 110.609 39.8417C112.341 38.4418 114.345 37.2215 116.626 36.1808C118.903 35.14 121.307 34.1225 123.834 33.135V29.7599C123.834 27.8414 123.724 26.2486 123.504 24.9884C123.285 23.7282 122.832 22.7805 122.146 22.1487C121.46 21.5203 120.428 21.2011 119.056 21.2011C117.848 21.2011 116.872 21.4771 116.13 22.0224C115.387 22.571 114.851 23.3524 114.522 24.3666C114.192 25.3808 114.025 26.5745 114.025 27.9444V30.3319L105.292 30.0027C105.402 24.7357 106.611 20.8553 108.918 18.3581C111.225 15.8609 114.795 14.614 119.629 14.614C124.463 14.614 127.703 15.9042 129.68 18.4811C131.658 21.0614 132.647 24.7889 132.647 29.6735V51.3965C132.647 52.8762 132.687 54.306 132.77 55.676C132.853 57.0492 132.963 58.3228 133.1 59.5032C133.236 60.6836 133.359 61.7942 133.469 62.835H125.395C125.232 61.9571 125.026 60.8465 124.776 59.5032C124.53 58.1598 124.35 56.9395 124.24 55.8422C123.691 57.7076 122.632 59.45 121.067 61.066C119.502 62.6853 117.345 63.4933 114.598 63.4933L114.608 63.5ZM118.067 55.9287C118.946 55.9287 119.769 55.6826 120.538 55.1872C121.307 54.6917 121.993 54.1331 122.599 53.5013C123.201 52.8729 123.614 52.3641 123.834 51.9784V38.4817C122.459 39.2499 121.17 40.018 119.962 40.7861C118.753 41.5542 117.694 42.3622 116.789 43.2134C115.883 44.0646 115.167 45.0223 114.648 46.093C114.125 47.1636 113.866 48.384 113.866 49.7539C113.866 51.6758 114.222 53.1821 114.938 54.2794C115.65 55.3767 116.696 55.9253 118.067 55.9253V55.9287Z" fill="#F47820"/>
<path d="M138.75 80.3415V13.6895H147.566V80.3415H138.75Z" fill="#F47820"/>
<path d="M158.566 80.3416V32.7791H167.383V80.3416H158.566Z" fill="#006838"/>
<path d="M178.459 80.3416V39.2796H172.776V32.779H178.459V30.3118C178.459 27.3491 178.692 24.812 179.159 22.7005C179.625 20.5891 180.6 18.9565 182.085 17.806C183.567 16.6555 185.794 16.0769 188.757 16.0769C189.856 16.0769 190.831 16.1168 191.684 16.1999C192.536 16.2831 193.482 16.4327 194.527 16.6522V23.0696C194.031 22.9599 193.482 22.8635 192.879 22.7804C192.273 22.6972 191.727 22.6573 191.231 22.6573C189.526 22.6573 188.441 23.2193 187.978 24.3432C187.512 25.4671 187.279 26.9634 187.279 28.8287V32.779H194.53V39.2796H187.279V80.3416H178.463H178.459Z" fill="#F47820"/>
<path d="M212.489 81.0001C208.754 81.0001 205.87 80.2752 203.839 78.8188C201.809 77.3657 200.394 75.2277 199.598 72.4013C198.802 69.5749 198.403 66.1068 198.403 61.9903V51.1272C198.403 46.9043 198.815 43.3929 199.638 40.5932C200.463 37.7967 201.905 35.6853 203.963 34.2555C206.024 32.829 208.864 32.1174 212.489 32.1174C216.498 32.1174 219.451 32.9421 221.345 34.5847C223.24 36.2306 224.488 38.6047 225.094 41.7038C225.697 44.8028 226 48.5203 226 52.8529V56.72H207.216V66.2664C207.216 68.1884 207.392 69.7512 207.752 70.9582C208.108 72.1652 208.684 73.0564 209.483 73.6316C210.279 74.2068 211.307 74.4961 212.573 74.4961C213.838 74.4961 214.893 74.1802 215.579 73.5485C216.265 72.92 216.731 72.0123 216.981 70.8318C217.227 69.6514 217.35 68.2682 217.35 66.6754V63.7959H225.92V65.6047C225.92 70.3763 224.901 74.137 222.87 76.8769C220.839 79.6201 217.377 80.9901 212.489 80.9901V81.0001ZM207.216 51.9518H217.35V47.6724C217.35 45.6972 217.24 44.038 217.021 42.6946C216.801 41.3513 216.348 40.3371 215.662 39.6488C214.973 38.9639 213.891 38.6214 212.406 38.6214C210.921 38.6214 209.892 38.9506 209.153 39.6089C208.414 40.2673 207.905 41.3779 207.628 42.9407C207.352 44.5035 207.216 46.6582 207.216 49.4014V51.9518Z" fill="#F47820"/>
<path d="M162.974 0C163.021 0.349138 163.271 1.70579 163.76 2.63017C164.299 3.64433 163.873 4.53879 163.873 4.53879C163.88 4.53547 163.89 4.53214 163.897 4.52549C164.183 4.35924 164.299 3.83719 164.299 3.83719C164.646 5.14064 164.309 6.075 164.309 6.075C164.712 5.77241 164.816 5.41663 164.816 5.41663C165.232 6.52722 164.779 7.97032 164.779 7.97032C165.075 7.79076 165.288 7.38177 165.288 7.38177C165.478 8.74175 164.962 9.67278 164.962 9.67278C165.288 9.50653 165.508 9.22057 165.508 9.22057C165.638 10.3478 165.165 11.7743 165.165 11.7743C165.505 11.6512 165.681 11.2522 165.681 11.2522C165.744 12.3728 165.012 13.8558 165.012 13.8558C165.372 13.6829 165.744 13.2872 165.744 13.2872C165.691 14.441 164.832 15.6946 164.832 15.6946C165.275 15.6846 165.668 15.4086 165.668 15.4086C165.571 16.7952 164.483 18.102 164.483 18.102C164.819 18.0554 165.182 17.7262 165.182 17.7262C165.182 17.7262 163.201 21.0381 162.978 23.1528C162.685 21.0547 160.624 17.7429 160.624 17.7429C160.624 17.7429 161.017 18.0388 161.476 18.102C161.476 18.102 160.387 16.7985 160.291 15.4086C160.291 15.4086 160.684 15.6846 161.127 15.6946C161.127 15.6946 160.268 14.441 160.214 13.2872C160.214 13.2872 160.587 13.6796 160.947 13.8558C160.947 13.8558 160.214 12.3728 160.278 11.2522C160.278 11.2522 160.454 11.6512 160.794 11.7743C160.794 11.7743 160.321 10.3478 160.451 9.22057C160.451 9.22057 160.67 9.50985 160.997 9.67278C160.997 9.67278 160.481 8.73842 160.67 7.38177C160.67 7.38177 160.884 7.79409 161.18 7.97032C161.18 7.97032 160.727 6.53054 161.143 5.41663C161.143 5.41663 161.243 5.77241 161.649 6.075C161.649 6.075 161.313 5.14064 161.659 3.83719C161.659 3.83719 161.776 4.35591 162.062 4.52549C162.069 4.52882 162.079 4.53547 162.085 4.53879C162.085 4.53879 161.693 3.64101 162.199 2.63017C162.848 1.33337 162.941 0.369089 162.984 0L162.974 0Z" fill="#F47820"/>
<path d="M178.386 7.75415C178.186 8.01684 177.447 9.08752 177.158 10.0252C176.838 11.0593 175.962 11.3686 175.962 11.3686C175.969 11.3686 175.979 11.3752 175.986 11.3752C176.285 11.455 176.712 11.1857 176.712 11.1857C176.076 12.283 175.23 12.682 175.23 12.682C175.699 12.7485 176.006 12.5789 176.006 12.5789C175.543 13.5931 174.281 14.2514 174.281 14.2514C174.597 14.3279 175.014 14.1949 175.014 14.1949C174.234 15.2257 173.272 15.5017 173.272 15.5017C173.599 15.6081 173.935 15.5615 173.935 15.5615C173.272 16.3961 172.007 17.0312 172.007 17.0312C172.313 17.1776 172.696 17.0279 172.696 17.0279C171.994 17.816 170.519 18.3147 170.519 18.3147C170.872 18.4378 171.384 18.4245 171.384 18.4245C170.582 19.156 169.177 19.4187 169.177 19.4187C169.477 19.7046 169.923 19.7811 169.923 19.7811C168.934 20.639 167.343 20.7853 167.343 20.7853C167.599 20.9782 168.058 21.0014 168.058 21.0014C168.058 21.0014 164.536 21.8892 162.981 23.1461C164.186 21.5567 165.015 17.9856 165.015 17.9856C165.015 17.9856 165.079 18.4411 165.342 18.7902C165.342 18.7902 165.485 17.2008 166.347 16.2133C166.347 16.2133 166.424 16.6588 166.71 16.9581C166.71 16.9581 166.973 15.5549 167.705 14.7535C167.705 14.7535 167.692 15.2623 167.815 15.6181C167.815 15.6181 168.315 14.145 169.104 13.4434C169.104 13.4434 168.954 13.8258 169.1 14.1317C169.1 14.1317 169.736 12.8682 170.572 12.2065C170.572 12.2065 170.525 12.5457 170.632 12.8682C170.632 12.8682 170.912 11.9039 171.94 11.1292C171.94 11.1292 171.807 11.5448 171.884 11.8607C171.884 11.8607 172.543 10.6038 173.559 10.1383C173.559 10.1383 173.389 10.4442 173.455 10.913C173.455 10.913 173.852 10.0684 174.954 9.43334C174.954 9.43334 174.684 9.85563 174.764 10.1582C174.764 10.1649 174.767 10.1748 174.77 10.1815C174.77 10.1815 175.107 9.32361 176.116 8.98777C177.411 8.55551 178.117 7.97693 178.39 7.7608L178.386 7.75415Z" fill="#006838"/>
<path d="M177.421 23.1462C177.204 23.1761 176.355 23.3291 175.779 23.635C175.147 23.9708 174.587 23.7048 174.587 23.7048C174.587 23.7082 174.594 23.7148 174.594 23.7181C174.697 23.8977 175.024 23.9675 175.024 23.9675C174.211 24.1836 173.628 23.9742 173.628 23.9742C173.818 24.2269 174.038 24.2867 174.038 24.2867C173.345 24.5461 172.443 24.2634 172.443 24.2634C172.553 24.4463 172.813 24.5793 172.813 24.5793C171.964 24.699 171.381 24.3765 171.381 24.3765C171.484 24.5793 171.664 24.7157 171.664 24.7157C170.962 24.7955 170.069 24.5029 170.069 24.5029C170.146 24.7157 170.396 24.8254 170.396 24.8254C169.696 24.8653 168.771 24.4098 168.771 24.4098C168.881 24.6325 169.124 24.8653 169.124 24.8653C168.405 24.832 167.622 24.2967 167.622 24.2967C167.629 24.5727 167.802 24.8154 167.802 24.8154C166.936 24.7556 166.121 24.0772 166.121 24.0772C166.151 24.2867 166.354 24.5128 166.354 24.5128C166.354 24.5128 164.286 23.2792 162.968 23.1396C164.28 22.9567 166.344 21.6732 166.344 21.6732C166.344 21.6732 166.161 21.9159 166.121 22.2019C166.121 22.2019 166.933 21.5235 167.802 21.4637C167.802 21.4637 167.629 21.7098 167.622 21.9824C167.622 21.9824 168.405 21.4471 169.124 21.4138C169.124 21.4138 168.877 21.6466 168.771 21.8694C168.771 21.8694 169.696 21.4138 170.396 21.4537C170.396 21.4537 170.146 21.5634 170.069 21.7763C170.069 21.7763 170.962 21.4836 171.664 21.5634C171.664 21.5634 171.484 21.6998 171.381 21.9026C171.381 21.9026 171.964 21.5801 172.813 21.6998C172.813 21.6998 172.556 21.8328 172.443 22.0157C172.443 22.0157 173.342 21.733 174.038 21.9924C174.038 21.9924 173.815 22.0556 173.628 22.3083C173.628 22.3083 174.211 22.0988 175.024 22.3149C175.024 22.3149 174.697 22.3881 174.594 22.5643C174.594 22.5676 174.587 22.5743 174.587 22.5776C174.587 22.5776 175.15 22.3349 175.779 22.6474C176.588 23.0531 177.191 23.1096 177.421 23.1362V23.1462Z" fill="#F47820"/>
<path d="M168.048 28.2137C167.962 28.1472 167.609 27.9044 167.299 27.808C166.96 27.7049 166.856 27.4156 166.856 27.4156V27.4223C166.83 27.522 166.92 27.6617 166.92 27.6617C166.557 27.4522 166.427 27.1762 166.427 27.1762C166.404 27.3292 166.46 27.4323 166.46 27.4323C166.127 27.2793 165.908 26.867 165.908 26.867C165.881 26.9701 165.924 27.1064 165.924 27.1064C165.585 26.8504 165.495 26.5345 165.495 26.5345C165.458 26.6409 165.475 26.7539 165.475 26.7539C165.198 26.5345 164.989 26.1188 164.989 26.1188C164.942 26.2186 164.989 26.345 164.989 26.345C164.729 26.1122 164.566 25.6301 164.566 25.6301C164.526 25.7464 164.529 25.9127 164.529 25.9127C164.29 25.65 164.203 25.1878 164.203 25.1878C164.11 25.2876 164.083 25.4339 164.083 25.4339C163.8 25.108 163.753 24.586 163.753 24.586C163.69 24.6691 163.684 24.822 163.684 24.822C163.684 24.822 163.391 23.6649 162.978 23.1528C163.5 23.5485 164.679 23.8212 164.679 23.8212C164.679 23.8212 164.529 23.8411 164.413 23.9276C164.413 23.9276 164.935 23.9741 165.262 24.2568C165.262 24.2568 165.115 24.2834 165.015 24.3765C165.015 24.3765 165.478 24.4629 165.741 24.7023C165.741 24.7023 165.575 24.699 165.455 24.7389C165.455 24.7389 165.941 24.9018 166.171 25.1612C166.171 25.1612 166.044 25.1113 165.944 25.1612C165.944 25.1612 166.36 25.3707 166.58 25.6467C166.58 25.6467 166.47 25.6301 166.36 25.6666C166.36 25.6666 166.677 25.7597 166.933 26.0956C166.933 26.0956 166.797 26.0523 166.693 26.0789C166.693 26.0789 167.11 26.2951 167.259 26.6309C167.259 26.6309 167.159 26.5744 167.003 26.5977C167.003 26.5977 167.279 26.7273 167.489 27.0898C167.489 27.0898 167.349 27 167.249 27.0266H167.243C167.243 27.0266 167.526 27.1363 167.636 27.4688C167.779 27.8945 167.968 28.1272 168.042 28.217L168.048 28.2137Z" fill="#006838"/>
<path d="M157.904 28.2136C157.97 28.1271 158.213 27.7747 158.31 27.4654C158.413 27.1263 158.703 27.0232 158.703 27.0232H158.696C158.596 26.9966 158.456 27.0864 158.456 27.0864C158.666 26.7239 158.942 26.5942 158.942 26.5942C158.789 26.571 158.686 26.6275 158.686 26.6275C158.839 26.295 159.252 26.0755 159.252 26.0755C159.149 26.0489 159.012 26.0921 159.012 26.0921C159.269 25.753 159.585 25.6632 159.585 25.6632C159.479 25.6266 159.365 25.6433 159.365 25.6433C159.585 25.3673 160.001 25.1578 160.001 25.1578C159.901 25.1112 159.775 25.1578 159.775 25.1578C160.008 24.8984 160.491 24.7355 160.491 24.7355C160.374 24.6956 160.204 24.6989 160.204 24.6989C160.467 24.4595 160.93 24.3731 160.93 24.3731C160.83 24.28 160.684 24.2534 160.684 24.2534C161.01 23.9707 161.533 23.9242 161.533 23.9242C161.45 23.861 161.296 23.8543 161.296 23.8543C161.296 23.8543 162.455 23.5617 162.968 23.1494C162.572 23.6715 162.299 24.8486 162.299 24.8486C162.299 24.8486 162.279 24.6989 162.192 24.5825C162.192 24.5825 162.145 25.1046 161.862 25.4304C161.862 25.4304 161.836 25.2841 161.742 25.1844C161.742 25.1844 161.656 25.6466 161.416 25.9093C161.416 25.9093 161.42 25.743 161.38 25.6233C161.38 25.6233 161.216 26.1088 160.957 26.3382C160.957 26.3382 161.007 26.2119 160.957 26.1121C160.957 26.1121 160.747 26.5277 160.471 26.7472C160.471 26.7472 160.487 26.6375 160.451 26.5277C160.451 26.5277 160.357 26.8436 160.021 27.0997C160.021 27.0997 160.064 26.9633 160.038 26.8602C160.038 26.8602 159.821 27.2759 159.485 27.4255C159.485 27.4255 159.542 27.3258 159.518 27.1695C159.518 27.1695 159.389 27.4455 159.026 27.655C159.026 27.655 159.116 27.5153 159.089 27.4155V27.4089C159.089 27.4089 158.979 27.6915 158.646 27.8013C158.22 27.9442 157.987 28.1338 157.897 28.2069L157.904 28.2136Z" fill="#006838"/>
<path d="M148.528 23.1461C148.745 23.1162 149.594 22.9632 150.17 22.6573C150.802 22.3215 151.361 22.5875 151.361 22.5875C151.361 22.5841 151.355 22.5775 151.355 22.5742C151.252 22.3946 150.925 22.3248 150.925 22.3248C151.738 22.1087 152.32 22.3181 152.32 22.3181C152.131 22.0654 151.911 22.0056 151.911 22.0056C152.603 21.7462 153.502 22.0288 153.502 22.0288C153.392 21.846 153.133 21.713 153.133 21.713C153.982 21.5933 154.564 21.9158 154.564 21.9158C154.461 21.713 154.281 21.5766 154.281 21.5766C154.984 21.4968 155.876 21.7894 155.876 21.7894C155.8 21.5766 155.55 21.4669 155.55 21.4669C156.249 21.427 157.175 21.8825 157.175 21.8825C157.065 21.6598 156.822 21.427 156.822 21.427C157.541 21.4603 158.323 21.9956 158.323 21.9956C158.317 21.7196 158.143 21.4769 158.143 21.4769C159.009 21.5367 159.825 22.2151 159.825 22.2151C159.795 22.0056 159.592 21.7795 159.592 21.7795C159.592 21.7795 161.659 23.0131 162.978 23.1527C161.666 23.3356 159.602 24.6191 159.602 24.6191C159.602 24.6191 159.785 24.3764 159.825 24.0904C159.825 24.0904 159.012 24.7687 158.143 24.8286C158.143 24.8286 158.317 24.5825 158.323 24.3099C158.323 24.3099 157.541 24.8452 156.822 24.8785C156.822 24.8785 157.068 24.6457 157.175 24.4229C157.175 24.4229 156.249 24.8785 155.55 24.8386C155.55 24.8386 155.8 24.7288 155.876 24.516C155.876 24.516 154.987 24.8087 154.281 24.7288C154.281 24.7288 154.461 24.5925 154.564 24.3897C154.564 24.3897 153.982 24.7122 153.133 24.5925C153.133 24.5925 153.389 24.4595 153.502 24.2766C153.502 24.2766 152.603 24.5593 151.911 24.2999C151.911 24.2999 152.134 24.2367 152.324 23.984C152.324 23.984 151.741 24.1935 150.929 23.9774C150.929 23.9774 151.255 23.9042 151.358 23.728C151.358 23.7247 151.365 23.718 151.365 23.7147C151.365 23.7147 150.802 23.9574 150.173 23.6449C149.364 23.2392 148.761 23.1827 148.531 23.1561L148.528 23.1461Z" fill="#F47820"/>
<path d="M147.563 7.75415C147.762 8.01684 148.501 9.08752 148.791 10.0252C149.111 11.0593 149.986 11.3686 149.986 11.3686C149.98 11.3686 149.97 11.3752 149.963 11.3752C149.663 11.455 149.237 11.1857 149.237 11.1857C149.873 12.283 150.719 12.682 150.719 12.682C150.249 12.7485 149.943 12.5789 149.943 12.5789C150.406 13.5931 151.668 14.2514 151.668 14.2514C151.351 14.3279 150.939 14.1949 150.939 14.1949C151.718 15.2257 152.68 15.5017 152.68 15.5017C152.354 15.6081 152.017 15.5615 152.017 15.5615C152.68 16.3961 153.945 17.0312 153.945 17.0312C153.639 17.1776 153.256 17.0279 153.256 17.0279C153.958 17.816 155.433 18.3147 155.433 18.3147C155.08 18.4378 154.568 18.4245 154.568 18.4245C155.37 19.156 156.775 19.4187 156.775 19.4187C156.475 19.7046 156.029 19.7811 156.029 19.7811C157.018 20.639 158.61 20.7853 158.61 20.7853C158.353 20.9782 157.894 21.0014 157.894 21.0014C157.894 21.0014 161.416 21.8892 162.971 23.1461C161.766 21.5567 160.937 17.9856 160.937 17.9856C160.937 17.9856 160.874 18.4411 160.611 18.7902C160.611 18.7902 160.467 17.2008 159.605 16.2133C159.605 16.2133 159.528 16.6588 159.242 16.9581C159.242 16.9581 158.979 15.5549 158.247 14.7535C158.247 14.7535 158.26 15.2623 158.137 15.6181C158.137 15.6181 157.637 14.145 156.848 13.4434C156.848 13.4434 156.998 13.8258 156.852 14.1317C156.852 14.1317 156.216 12.8682 155.38 12.2065C155.38 12.2065 155.427 12.5457 155.32 12.8682C155.32 12.8682 155.04 11.9039 154.012 11.1292C154.012 11.1292 154.145 11.5448 154.068 11.8607C154.068 11.8607 153.409 10.6038 152.394 10.1383C152.394 10.1383 152.563 10.4442 152.497 10.913C152.497 10.913 152.101 10.0684 150.999 9.43334C150.999 9.43334 151.268 9.85563 151.188 10.1582C151.188 10.1649 151.185 10.1748 151.182 10.1815C151.182 10.1815 150.845 9.32361 149.837 8.98777C148.541 8.55551 147.836 7.97693 147.563 7.7608V7.75415Z" fill="#006838"/>
<path d="M163.148 21.6865H162.801V30.3052H163.148V21.6865Z" fill="#006838"/>
</g>
<defs>
<clipPath id="clip0_4_75">
<rect width="226" height="81" fill="white"/>
</clipPath>
</defs>
</svg>
